<!DOCTYPE svg PUBLIC "-//W3C//DTD SVG 20010904//EN" "http://www.w3.org/TR/2001/REC-SVG-20010904/DTD/svg10.dtd">
<svg version="1.0" xmlns="http://www.w3.org/2000/svg" width="452px" height="501px" viewBox="0 0 4520 5010" preserveAspectRatio="xMidYMid meet">
<g id="layer101" fill="#202038" stroke="none">
 <path d="M2110 4990 c-110 -29 -194 -75 -970 -524 -877 -508 -856 -495 -956 -589 -71 -67 -87 -88 -114 -153 -61 -148 -60 -114 -60 -1219 0 -1110 -1 -1081 61 -1216 25 -53 50 -86 108 -142 42 -40 97 -87 121 -104 25 -16 322 -190 660 -385 338 -196 705 -408 815 -472 242 -141 336 -176 473 -176 74 0 236 21 260 33 4 2 396 228 871 503 847 490 865 501 956 586 100 95 126 140 156 273 19 83 21 2122 2 2201 -29 123 -52 165 -141 257 -47 48 -113 105 -146 126 -63 41 -1454 847 -1586 919 -134 73 -201 94 -325 98 -87 3 -125 0 -185 -16z"/>
 </g>
<g id="layer102" fill="#8438cc" stroke="none">
 <path d="M2199 4800 c-82 -13 -146 -41 -314 -139 -119 -71 -849 -493 -1310 -759 -110 -63 -212 -133 -261 -179 -50 -46 -81 -119 -95 -223 -6 -47 -9 -439 -7 -1045 l3 -970 23 -65 c25 -69 77 -132 162 -195 25 -18 250 -151 500 -295 250 -145 568 -328 705 -408 138 -80 295 -172 350 -204 171 -99 260 -120 400 -96 80 14 93 22 820 443 407 235 787 456 844 489 66 38 132 87 177 131 116 112 109 34 109 1220 0 1075 0 1082 -55 1168 -15 23 -51 63 -81 89 -43 37 -1228 731 -1629 955 -143 80 -226 100 -341 83z"/>
 </g>
<g id="layer103" fill="#9844fe" stroke="none">
 <path d="M2249 4806 c-2 -3 -22 -7 -44 -10 -64 -7 -172 -52 -260 -106 -56 -35 -80 -49 -110 -65 -16 -9 -43 -25 -60 -35 -16 -11 -43 -27 -60 -35 -16 -9 -48 -27 -70 -40 -22 -13 -49 -29 -60 -35 -11 -6 -38 -22 -60 -35 -22 -13 -53 -31 -70 -40 -16 -8 -43 -24 -60 -35 -16 -11 -43 -27 -60 -35 -16 -9 -43 -25 -60 -35 -16 -11 -43 -27 -60 -36 -16 -8 -48 -26 -70 -39 -22 -14 -49 -29 -60 -35 -11 -6 -38 -22 -60 -35 -22 -14 -53 -32 -70 -40 -16 -9 -43 -25 -60 -35 -16 -11 -43 -27 -60 -36 -16 -8 -48 -26 -70 -39 -22 -13 -53 -31 -70 -40 -16 -9 -48 -27 -70 -40 -22 -13 -53 -31 -70 -40 -76 -40 -93 -50 -129 -82 -22 -18 -44 -33 -50 -33 -6 0 -31 -18 -56 -40 l-45 -39 40 -41 c57 -59 212 -161 415 -275 96 -53 204 -116 239 -140 l63 -42 1 -698 1 -699 -179 -104 c-318 -185 -564 -333 -571 -343 -8 -13 53 -77 116 -124 25 -18 250 -151 500 -295 250 -145 568 -328 705 -408 439 -256 462 -268 522 -287 32 -10 78 -19 103 -19 l45 -1 5 448 5 448 140 73 c254 131 523 285 852 488 105 65 196 118 201 118 6 0 48 -23 94 -52 46 -28 216 -129 378 -224 l295 -173 17 36 c9 20 24 78 33 127 14 81 15 198 12 1041 -2 523 -7 970 -11 995 -6 36 -28 99 -42 118 -1 2 -102 -56 -224 -128 -226 -133 -484 -279 -531 -300 -23 -11 -37 -5 -160 72 -264 165 -578 346 -996 575 l-63 34 -2 446 c-3 418 -6 471 -29 449z"/>
 </g>
<g id="layer104" fill="#e05cff" stroke="none">
 <path d="M2158 3856 c-114 -51 -198 -97 -408 -221 -85 -50 -218 -127 -295 -170 -157 -88 -260 -155 -353 -228 l-64 -50 3 -694 3 -695 -164 -95 c-320 -185 -600 -354 -600 -362 0 -9 86 -92 130 -124 19 -14 240 -143 490 -287 250 -145 568 -328 705 -408 138 -80 295 -172 350 -204 110 -64 193 -96 267 -105 l48 -6 0 450 0 449 173 91 c296 156 968 551 1015 597 29 29 40 963 16 1327 l-7 96 -61 38 c-366 231 -1093 645 -1132 645 -11 0 -63 -20 -116 -44z"/>
 </g>
<g id="layer105" fill="#e894ff" stroke="none">
 <path d="M870 1693 c-91 -53 -232 -135 -315 -183 -82 -48 -179 -105 -214 -127 l-63 -41 38 -42 c46 -50 133 -114 230 -166 39 -22 125 -70 190 -107 145 -84 126 -72 260 -152 61 -36 114 -65 117 -65 3 0 26 -13 50 -29 24 -17 71 -45 104 -63 33 -18 109 -62 169 -97 602 -354 649 -380 746 -401 96 -22 88 -60 88 443 l0 443 -87 38 c-49 22 -122 57 -163 79 -111 60 -707 409 -843 493 -64 41 -123 74 -130 74 -6 0 -86 -44 -177 -97z"/>
 </g>

</svg>